<svg width="65" height="93" viewBox="0 0 65 93" fill="none" xmlns="http://www.w3.org/2000/svg">
<path d="M33.0196 92.2124C43.4992 92.2124 51.9947 88.1756 51.9947 83.196C51.9947 78.2164 43.4992 74.1797 33.0196 74.1797C22.5399 74.1797 14.0444 78.2164 14.0444 83.196C14.0444 88.1756 22.5399 92.2124 33.0196 92.2124Z" fill="white" stroke="#94A87D" stroke-miterlimit="10"/>
<path d="M31.4556 81.0504V37.0391H34.5862V81.0504" fill="white"/>
<path d="M31.4556 81.0504V37.0391H34.5862V81.0504" stroke="#94A87D" stroke-miterlimit="10"/>
<path d="M63.6553 35.3741L53.47 5.00488H12.4918L0.5 37.0384C0.5 41.9426 14.9946 45.917 32.5057 45.917C50.0168 45.917 64.2146 41.9426 64.2146 37.0384C64.2146 36.4703 63.9578 36.1288 63.6581 35.3741H63.6553Z" fill="white" stroke="#94A87D" stroke-miterlimit="10"/>
<path d="M33.0194 9.5106C44.3139 9.5106 53.4699 7.49351 53.4699 5.0053C53.4699 2.51709 44.3139 0.5 33.0194 0.5C21.7249 0.5 12.5688 2.51709 12.5688 5.0053C12.5688 7.49351 21.7249 9.5106 33.0194 9.5106Z" fill="white" stroke="#94A87D" stroke-miterlimit="10"/>
</svg>
